<?xml version="1.0" encoding="UTF-8"?>
<svg width="54px" height="41px" viewBox="0 0 54 41" version="1.1" xmlns="http://www.w3.org/2000/svg" xmlns:xlink="http://www.w3.org/1999/xlink">
    <!-- Generator: Sketch 52.4 (67378) - http://www.bohemiancoding.com/sketch -->
    <title>Combined Shape</title>
    <desc>Created with Sketch.</desc>
    <g id="Page-1" stroke="none" stroke-width="1" fill="none" fill-rule="evenodd">
        <g id="Quality-Assurance-Testing" transform="translate(-1055.000000, -2150.000000)" fill="#FFFFFF" fill-rule="nonzero" stroke="#FFFFFF" stroke-width="0.2">
            <g id="Consulting" transform="translate(326.000000, 1907.000000)">
                <g id="2" transform="translate(711.000000, 218.000000)">
                    <g id="Group-2">
                        <g id="project" transform="translate(19.000000, 26.000000)">
                            <path d="M49.4939759,1.36447041 C50.8722892,1.36447041 52,2.504941 52,3.8988495 L52,31.3123834 C52,32.7062919 50.8722892,33.8467625 49.4939759,33.8467625 L32.0771084,33.8467625 L32.0771084,37.7328105 L39.2610442,37.7328105 C39.5951807,37.7328105 39.8875502,38.028488 39.8875502,38.3664052 C39.8875502,38.7043224 39.5951807,39 39.2610442,39 L23.9742972,39 C23.6401606,39 23.3477912,38.7043224 23.3477912,38.3664052 C23.3477912,38.028488 23.6401606,37.7328105 23.9742972,37.7328105 L30.8240964,37.7328105 L30.8240964,33.8467625 L25.5196787,33.8467625 C25.1855422,33.8467625 24.8931727,33.5510849 24.8931727,33.2131677 C24.8931727,32.8752505 25.1855422,32.579573 25.5196787,32.579573 L49.4522088,32.579573 C50.162249,32.579573 50.7052209,32.0304575 50.7052209,31.3123834 L50.7052209,28.9469629 C50.6634538,28.9469629 50.6634538,28.9469629 50.6216867,28.9469629 L25.7702811,28.9469629 C25.4361446,28.9469629 25.1437751,28.6512854 25.1437751,28.3133681 C25.1437751,27.9754509 25.4361446,27.6797734 25.7702811,27.6797734 L50.6634538,27.6797734 C50.7052209,27.6797734 50.7052209,27.6797734 50.746988,27.6797734 L50.746988,3.8988495 C50.746988,3.18077543 50.162249,2.63165995 49.4939759,2.63165995 L17.4168675,2.63165995 C17.0827309,2.63165995 16.7903614,2.33598239 16.7903614,1.99806518 C16.7903614,1.66014797 17.0827309,1.36447041 17.4168675,1.36447041 L49.4939759,1.36447041 Z M44.1060241,16.570745 C44.4819277,16.570745 44.7325301,16.8664226 44.7325301,17.2043398 C44.7325301,17.542257 44.4401606,17.8379345 44.1060241,17.8379345 L25.8120482,17.8379345 C25.4779116,17.8379345 25.1855422,17.542257 25.1855422,17.2043398 C25.1855422,16.8664226 25.4779116,16.570745 25.8120482,16.570745 L44.1060241,16.570745 Z M25.8120482,11.7976644 C25.4779116,11.7976644 25.1855422,11.5019868 25.1855422,11.1640696 C25.1855422,10.8261524 25.4779116,10.5304748 25.8120482,10.5304748 L44.1060241,10.5304748 C44.4401606,10.5304748 44.7325301,10.8261524 44.7325301,11.1640696 C44.7325301,11.5019868 44.4401606,11.7976644 44.1060241,11.7976644 L25.8120482,11.7976644 Z M19.546988,8.20729397 L4.13493976,8.20729397 L3.96787149,7.91161641 C3.88433735,7.78489745 3.80080321,7.6581785 3.80080321,6.01083208 C3.80080321,5.37723731 4.26024096,4.61692358 7.81044177,4.19452706 C8.22811245,4.15228741 8.52048193,3.8143702 8.52048193,3.39197368 C8.52048193,2.4204617 8.89638554,1.53342901 9.56465863,0.899834238 C10.2329317,0.266239464 11.1518072,-0.071677749 12.0706827,0.0128015543 C13.7831325,0.139520509 15.0779116,1.53342901 15.1614458,3.22301508 L15.1614458,3.43421334 C15.1614458,3.85660985 15.4538153,4.19452706 15.8714859,4.23676672 C19.4216867,4.65916323 19.8811245,5.41947696 19.8811245,6.05307174 C19.8811245,7.70041815 19.8393574,7.78489745 19.7140562,7.95385606 L19.546988,8.20729397 Z M5.05381526,6.94010442 L18.6281124,6.94010442 C18.6281124,6.68666651 18.6281124,6.3487493 18.6281124,6.17979069 C18.37751,6.01083208 17.5839357,5.71515452 15.7044177,5.46171661 C14.660241,5.33499766 13.9084337,4.44796497 13.9084337,3.39197368 L13.9084337,3.22301508 C13.8666667,2.20926344 13.0313253,1.32223075 11.9871486,1.23775145 C11.4024096,1.1955118 10.8594378,1.40671006 10.4,1.78686692 C9.98232932,2.20926344 9.73172691,2.75837891 9.73172691,3.34973403 C9.73172691,4.40572532 8.97991968,5.33499766 7.93574297,5.46171661 C6.0562249,5.67291487 5.2626506,6.01083208 5.01204819,6.17979069 C5.05381526,6.3487493 5.05381526,6.64442686 5.05381526,6.94010442 Z M23.5983936,35.1561917 L5.68434189e-14,35.1561917 L5.68434189e-14,6.09531139 L3.00722892,6.09531139 C3.34136546,6.09531139 3.63373494,6.39098895 3.63373494,6.72890616 C3.63373494,7.06682337 3.38313253,7.36250094 3.00722892,7.36250094 L1.25301205,7.36250094 L1.25301205,33.8890022 L22.3871486,33.8890022 L22.3871486,7.36250094 L20.6329317,7.36250094 C20.2987952,7.36250094 20.0064257,7.06682337 20.0064257,6.72890616 C20.0064257,6.39098895 20.2987952,6.09531139 20.6329317,6.09531139 L23.6401606,6.09531139 L23.6401606,35.1561917 L23.5983936,35.1561917 Z M19.2128514,17.7534552 L10.0240964,17.7534552 C9.68995984,17.7534552 9.39759036,17.4577777 9.39759036,17.1198605 C9.39759036,16.7819432 9.68995984,16.4862657 10.0240964,16.4862657 L19.2546185,16.4862657 C19.588755,16.4862657 19.8811245,16.7819432 19.8811245,17.1198605 C19.8811245,17.4577777 19.588755,17.7534552 19.2128514,17.7534552 Z M19.2128514,25.0186753 L10.0240964,25.0186753 C9.68995984,25.0186753 9.39759036,24.7229978 9.39759036,24.3850805 C9.39759036,24.0471633 9.68995984,23.7514858 10.0240964,23.7514858 L19.2546185,23.7514858 C19.588755,23.7514858 19.8811245,24.0471633 19.8811245,24.3850805 C19.8811245,24.7229978 19.588755,25.0186753 19.2128514,25.0186753 Z M5.01204819,19.8231982 L3.63373494,18.4292897 C3.38313253,18.1758518 3.38313253,17.7956949 3.63373494,17.542257 C3.88433735,17.2888191 4.26024096,17.2888191 4.51084337,17.542257 L5.01204819,18.0491328 L7.10040161,15.9371502 C7.35100402,15.6837123 7.72690763,15.6837123 7.97751004,15.9371502 C8.22811245,16.1905881 8.22811245,16.570745 7.97751004,16.8241829 L5.01204819,19.8231982 Z M5.01204819,26.4548235 L3.63373494,25.060915 C3.38313253,24.8074771 3.38313253,24.4273202 3.63373494,24.1738823 C3.88433735,23.9204444 4.26024096,23.9204444 4.51084337,24.1738823 L5.01204819,24.6807581 L7.10040161,22.5687755 C7.35100402,22.3153376 7.72690763,22.3153376 7.97751004,22.5687755 C8.22811245,22.8222134 8.22811245,23.2023703 7.97751004,23.4558082 L5.01204819,26.4548235 Z" id="Combined-Shape"></path>
                        </g>
                    </g>
                </g>
            </g>
        </g>
    </g>
</svg>