<?xml version="1.0" encoding="UTF-8"?>
<svg width="49px" height="53px" viewBox="0 0 49 53" version="1.1" xmlns="http://www.w3.org/2000/svg" xmlns:xlink="http://www.w3.org/1999/xlink">
    <!-- Generator: Sketch 54.1 (76490) - https://sketchapp.com -->
    <title>icon3</title>
    <desc>Created with Sketch.</desc>
    <g id="Page-1" stroke="none" stroke-width="1" fill="none" fill-rule="evenodd">
        <g id="Quality-Assurance-Testing" transform="translate(-347.000000, -2525.000000)" fill="#FFFFFF" fill-rule="nonzero" stroke="#4A90E2" stroke-width="0.5">
            <g id="Group-2-Copy-3" transform="translate(326.000000, 2505.000000)">
                <g id="icon3" transform="translate(22.000000, 0.000000)">
                    <path d="M44.0572033,29.4674634 C46.3126699,30.2467024 47.5320784,32.7710412 46.7757862,35.0942285 L35.6853879,69.1576774 C35.5612274,69.5386625 35.2164913,69.7793536 34.8467844,69.7793536 C34.7534906,69.7793536 34.658694,69.7639903 34.5654002,69.7318347 C34.1021683,69.5716518 33.8525757,69.0551365 34.0079497,68.5780417 L45.098348,34.5144737 C45.5445858,33.1439278 44.8252874,31.6550014 43.4947818,31.1951754 L19.6581653,22.9589186 C18.3275441,22.4990926 16.8823577,23.2402211 16.4361198,24.6108861 L16.1216724,25.576628 C15.9661828,26.0539609 15.4649166,26.3109681 15.0016847,26.1509043 C14.5384528,25.9908406 14.2888602,25.4742062 14.4442342,24.9971114 L14.7586816,24.0313696 C15.5150895,21.7080632 17.9651204,20.4517295 20.2207025,21.2310875 L44.0572033,29.4674634 Z M29.4557454,27.182863 C31.8346788,27.182863 33.7699176,29.1765142 33.7700332,31.6271332 L33.7700332,67.5556107 C33.7700332,70.0062297 31.8346788,72 29.455861,72 L4.31417221,72 C1.93535444,72 3.55271368e-15,70.0062297 3.55271368e-15,67.5556107 L3.55271368e-15,31.6271332 C3.55271368e-15,29.1765142 1.93535444,27.182863 4.31417221,27.182863 L29.4557454,27.182863 Z M32.0006885,67.5556107 L32.0008041,67.5556107 L32.0008041,31.6271332 C32.0008041,30.1815574 30.8591982,29.0053746 29.455861,29.0053746 L4.31417221,29.0053746 C2.91095065,29.0053746 1.7692291,30.1814383 1.7692291,31.6271332 L1.7692291,67.5556107 C1.7692291,69.0011865 2.91083504,70.1773693 4.31417221,70.1773693 L29.4557454,70.1773693 C30.858967,70.1773693 32.0006885,69.0013056 32.0006885,67.5556107 Z M29.9162028,52.334667 C30.4047523,52.334667 30.8008173,52.7426867 30.8009329,53.2459824 C30.8009329,53.7492781 30.4048679,54.1572978 29.9163184,54.1572978 L3.85383045,54.1572978 C3.36528091,54.1572978 2.9692159,53.7492781 2.9692159,53.2459824 C2.9692159,52.7426867 3.36528091,52.334667 3.85383045,52.334667 L29.9162028,52.334667 Z M25.7923175,57.5460285 C26.280867,57.5460285 26.6769321,57.9540482 26.6769321,58.4573439 C26.6769321,58.9606396 26.280867,59.3686592 25.7923175,59.3686592 L14.8382183,59.3686592 C14.3496688,59.3686592 13.9536038,58.9606396 13.9536038,58.4573439 C13.9536038,57.9540482 14.3496688,57.5460285 14.8382183,57.5460285 L25.7923175,57.5460285 Z M11.8894646,57.5460285 C12.3780142,57.5460285 12.7740792,57.9540482 12.7740792,58.4573439 C12.7740792,58.9606396 12.3780142,59.3686592 11.8894646,59.3686592 L7.97748452,59.3686592 C7.48893498,59.3686592 7.09286997,58.9606396 7.09286997,58.4573439 C7.09286997,57.9540482 7.48893498,57.5460285 7.97748452,57.5460285 L11.8894646,57.5460285 Z M25.7923175,61.029678 C26.280867,61.029678 26.6769321,61.4375786 26.6769321,61.9409934 C26.6769321,62.4442891 26.280867,62.8523087 25.7923175,62.8523087 L7.97748452,62.8523087 C7.48893498,62.8523087 7.09286997,62.4442891 7.09286997,61.9409934 C7.09286997,61.4376976 7.48893498,61.029678 7.97748452,61.029678 L25.7923175,61.029678 Z M25.7923175,64.5132084 C26.280867,64.5132084 26.6769321,64.921228 26.6769321,65.4245238 C26.6769321,65.9278195 26.280867,66.3358391 25.7923175,66.3358391 L7.97748452,66.3358391 C7.48893498,66.3358391 7.09286997,65.9278195 7.09286997,65.4245238 C7.09286997,64.921228 7.48893498,64.5132084 7.97748452,64.5132084 L25.7923175,64.5132084 Z M26.6073374,37.7564794 C26.7113825,38.0863727 26.6245627,38.4484216 26.3835249,38.6905419 L22.27594,42.8152801 L23.2456403,48.6397429 C23.3025183,48.9815457 23.1662192,49.3270405 22.8937367,49.5309312 C22.6213697,49.7348219 22.2602176,49.7617374 21.9621862,49.6003636 L16.884901,46.8503397 L11.8076158,49.6003636 C11.6781375,49.6702724 11.5367517,49.7049291 11.3960596,49.7049291 C11.2127091,49.7049291 11.0301677,49.6462152 10.8760654,49.5309312 C10.6036984,49.3270405 10.4672837,48.9815457 10.5241617,48.6397429 L11.493862,42.8152801 L7.38616155,38.6905419 C7.14512373,38.4484216 7.05830388,38.0863727 7.16234898,37.7564794 C7.26627847,37.4265861 7.54315404,37.1861331 7.87632957,37.1363514 L13.5529145,36.2866082 L16.0916149,30.9874736 C16.2407463,30.6763974 16.5482573,30.4794141 16.884901,30.4794141 C17.2216603,30.4794141 17.5290558,30.6763974 17.6781871,30.9874736 L20.2167719,36.2866082 L25.8933569,37.1363514 C26.2265324,37.1861331 26.5032923,37.4265861 26.6073374,37.7564794 Z M20.708096,41.8446554 L23.8651711,38.674345 L19.5019821,38.0211086 C19.2138927,37.9779962 18.9647625,37.7914933 18.8359778,37.5225767 L16.8847854,33.4495257 L14.933593,37.5225767 C14.8046927,37.7916124 14.5556781,37.9779962 14.2675888,38.0211086 L9.90451535,38.674345 L13.0615905,41.8446554 C13.2701431,42.0540245 13.3651709,42.3556922 13.3160385,42.6512862 L12.5707288,47.1279503 L16.4732292,45.0142512 C16.7307987,44.8747909 17.0386566,44.8747909 17.2964572,45.0142512 L21.1989576,47.1279503 L20.4536479,42.6512862 C20.4043999,42.3556922 20.4995433,42.0540245 20.708096,41.8446554 Z" id="Combined-Shape"></path>
                </g>
            </g>
        </g>
    </g>
</svg>