<?xml version="1.0" encoding="UTF-8"?>
<svg width="58px" height="59px" viewBox="0 0 58 59" version="1.1" xmlns="http://www.w3.org/2000/svg" xmlns:xlink="http://www.w3.org/1999/xlink">
    <!-- Generator: Sketch 54.1 (76490) - https://sketchapp.com -->
    <title>icon4</title>
    <desc>Created with Sketch.</desc>
    <g id="Page-1" stroke="none" stroke-width="1" fill="none" fill-rule="evenodd">
        <g id="Quality-Assurance-Testing" transform="translate(-1053.000000, -2522.000000)" fill="#FFFFFF" fill-rule="nonzero" stroke="#4FE2C2" stroke-width="0.8">
            <g id="Consulting" transform="translate(326.000000, 1907.000000)">
                <g id="2" transform="translate(711.000000, 138.000000)">
                    <g id="Group-2-Copy-4" transform="translate(0.000000, 440.000000)">
                        <g id="icon4" transform="translate(17.000000, 17.000000)">
                            <path d="M38.795095,43.7177761 C38.8182485,43.8025261 38.8300742,43.8900261 38.8299498,43.9777761 L38.8299498,53.9777761 C38.8298253,54.3287761 38.6465888,54.6540261 38.3469622,54.8347761 L28.388456,60.8347761 L28.3775016,60.8397761 L28.3665473,60.8477761 C28.3142651,60.8750261 28.2596178,60.8975261 28.2032278,60.9147761 C28.1803232,60.9227761 28.1584145,60.9357761 28.1345141,60.9427761 C27.965095,60.9894011 27.7862153,60.9894011 27.6166718,60.9427761 C27.5927713,60.9357761 27.5708626,60.9227761 27.5479581,60.9147761 C27.491568,60.8975261 27.4369207,60.8750261 27.3846386,60.8477761 L27.3736842,60.8397761 L27.3627298,60.8347761 L17.4042236,54.8347761 C17.1045971,54.6540261 16.9213605,54.3287761 16.9212361,53.9777761 L16.9212361,43.9777761 C16.9211116,43.8902761 16.9328128,43.8031511 16.9560908,43.7187761 C16.9670452,43.6865261 16.9797423,43.6547761 16.9939332,43.6237761 C17.0103647,43.5746511 17.0302817,43.5269011 17.0536842,43.4807761 C17.074846,43.4482761 17.098124,43.4172761 17.1233937,43.3877761 C17.1494103,43.3485261 17.178041,43.3111511 17.2090369,43.2757761 C17.2389124,43.2495261 17.2701572,43.2247761 17.3026469,43.2017761 C17.3353854,43.1721511 17.3703647,43.1451511 17.4072112,43.1207761 L27.3657174,37.1207761 C27.6812776,36.9304011 28.0758834,36.9304011 28.3914435,37.1207761 L38.3499498,43.1207761 C38.38468,43.1459011 38.4179166,43.1729011 38.4495348,43.2017761 C38.481651,43.2247761 38.5126469,43.2495261 38.5421489,43.2757761 C38.5737672,43.3111511 38.6027713,43.3490261 38.6287879,43.3887761 C38.6534352,43.4181511 38.6763398,43.4487761 38.6975016,43.4807761 C38.721402,43.5281511 38.7416925,43.5772761 38.7582485,43.6277761 C38.7724394,43.6570261 38.784763,43.6870261 38.795095,43.7177761 Z M27.8755929,39.1437761 L19.8530203,43.9777761 L22.8963398,45.8117761 L30.9189124,40.9777761 L27.8755929,39.1437761 Z M26.8797423,58.2107761 L26.8797423,50.5437761 L18.9129373,45.7437761 L18.9129373,53.4107761 L26.8797423,58.2107761 Z M27.8755929,48.8117761 L35.8981655,43.9777761 L32.854846,42.1437761 L24.8322734,46.9777761 L27.8755929,48.8117761 Z M36.8382485,53.4117761 L36.8382485,45.7437761 L28.8714435,50.5437761 L28.8714435,58.2117761 L36.8382485,53.4117761 Z M28.6722734,21.3777761 L31.6598253,25.3777761 L30.0664643,26.5777761 L28.8714435,24.9777761 L28.8714435,32.9777761 L26.8797423,32.9777761 L26.8797423,24.9777761 L25.6847215,26.5777761 L24.0913605,25.3777761 L27.0789124,21.3777761 C27.1212361,21.3260261 27.168539,21.2785261 27.2200742,21.2360261 C27.6601157,20.8725261 28.3102817,20.9359011 28.6722734,21.3777761 Z M30.0664643,72.3777761 L31.6598253,73.5777761 L28.6722734,77.5777761 C28.6156344,77.6535261 28.548539,77.7209011 28.4731033,77.7777761 C28.0330618,78.1091511 27.4089124,78.0196511 27.0789124,77.5777761 L24.0913605,73.5777761 L25.6847215,72.3777761 L26.8797423,73.9777761 L26.8797423,65.9777761 L28.8714435,65.9777761 L28.8714435,73.9777761 L30.0664643,72.3777761 Z M11.9502817,47.9777761 L11.9502817,49.9777761 L3.98347673,49.9777761 L5.57683773,51.1777761 L4.38181698,52.7777761 L0.398414489,49.7777761 C0.322978805,49.7209011 0.255883369,49.6535261 0.199244365,49.5777761 C-0.130755635,49.1359011 -0.0416270044,48.5091511 0.398414489,48.1777761 L4.38181698,45.1777761 L5.57683773,46.7777761 L3.98347673,47.9777761 L11.9502817,47.9777761 Z M55.5519415,48.3777761 C55.8819415,48.8196511 55.7928128,49.4464011 55.3527713,49.7777761 L51.3693688,52.7777761 L50.1743481,51.1777761 L51.7677091,49.9777761 L43.8009041,49.9777761 L43.8009041,47.9777761 L51.7677091,47.9777761 L50.1743481,46.7777761 L51.3693688,45.1777761 L55.3527713,48.1777761 C55.428207,48.2346511 55.4953025,48.3020261 55.5519415,48.3777761 Z M16.9044726,36.5427761 L15.4923564,37.9567761 L9.85982528,32.3007761 L10.1406552,34.2797761 L8.16887092,34.5627761 L7.46480453,29.6137761 C7.4503647,29.5165261 7.4503647,29.4175261 7.46480453,29.3201511 C7.54559291,28.7737761 8.05210744,28.3966511 8.59609084,28.4777761 L13.5245556,29.1887761 L13.2427298,31.1687761 L11.2719415,30.8867761 L16.9044726,36.5427761 Z M48.2843896,68.3417761 C48.2911116,68.3889011 48.2945971,68.4364011 48.2944726,68.4839011 C48.2943481,69.0361511 47.848456,69.4839011 47.2984975,69.4837761 C47.2511946,69.4839011 47.2038917,69.4805261 47.1570867,69.4737761 L42.228622,68.7667761 L42.5104477,66.7867761 L44.4792444,67.0707761 L38.8467132,61.4147761 L40.254846,60.0007761 L45.8873771,65.6567761 L45.6065473,63.6777761 L47.5803232,63.3927761 L48.2843896,68.3417761 Z M11.2679581,67.0687761 L13.2387464,66.7867761 L13.5205722,68.7667761 L8.59210744,69.4737761 C8.54530246,69.4805261 8.49799955,69.4839011 8.45069665,69.4837761 C8.40339374,69.4837761 8.35609084,69.4804011 8.30916138,69.4736511 C7.76468005,69.3951511 7.38675474,68.8884011 7.46480453,68.3417761 L8.17285432,63.3927761 L10.1446386,63.6757761 L9.86380868,65.6547761 L15.4963398,59.9987761 L16.9004892,61.4127761 L11.2679581,67.0687761 Z M48.0005722,28.7647761 C48.2225224,28.9875261 48.3269622,29.3020261 48.2823979,29.6137761 L47.5783315,34.5627761 L45.6065473,34.2777761 L45.8873771,32.3007761 L40.254846,37.9567761 L38.8467132,36.5427761 L44.4792444,30.8867761 L42.508456,31.1687761 L42.2266303,29.1887761 L47.155095,28.4817761 C47.4656759,28.4355261 47.7797423,28.5406511 48.0005722,28.7647761 Z" id="Combined-Shape"></path>
                        </g>
                    </g>
                </g>
            </g>
        </g>
    </g>
</svg>